<svg width="25" height="22" viewBox="0 0 25 22" fill="none" xmlns="http://www.w3.org/2000/svg">
<path d="M1.5625 20.3125C1.5625 21.1768 2.26074 21.875 3.125 21.875H21.875C22.7393 21.875 23.4375 21.1768 23.4375 20.3125V6.25H1.5625V20.3125ZM9.375 9.96094C9.375 9.63867 9.63867 9.375 9.96094 9.375H15.0391C15.3613 9.375 15.625 9.63867 15.625 9.96094V10.3516C15.625 10.6738 15.3613 10.9375 15.0391 10.9375H9.96094C9.63867 10.9375 9.375 10.6738 9.375 10.3516V9.96094ZM23.4375 0H1.5625C0.698242 0 0 0.698242 0 1.5625V3.90625C0 4.33594 0.351562 4.6875 0.78125 4.6875H24.2188C24.6484 4.6875 25 4.33594 25 3.90625V1.5625C25 0.698242 24.3018 0 23.4375 0Z" fill="white"/>
</svg>
